<?xml version="1.0" encoding="UTF-8"?>
<svg version="1.1" xmlns="http://www.w3.org/2000/svg" width="452" height="447">
<path d="M0 0 C149.16 0 298.32 0 452 0 C452 147.51 452 295.02 452 447 C302.84 447 153.68 447 0 447 C0 299.49 0 151.98 0 0 Z " fill="#00002B" transform="translate(0,0)"/>
<path d="M0 0 C1.04075684 -0.00950684 2.08151367 -0.01901367 3.15380859 -0.02880859 C26.84716783 0.07195069 46.92226698 8.49986798 64.4375 24.25 C65.60732422 25.27867187 65.60732422 25.27867187 66.80078125 26.328125 C73.36866426 32.45361174 77.87621416 39.59262148 82.4375 47.25 C82.79231445 47.83982666 83.14712891 48.42965332 83.51269531 49.03735352 C94.63930271 67.90566666 94.89310172 92.46477878 89.93798828 113.34082031 C86.27123593 127.32813904 78.87769277 139.42600387 69.4375 150.25 C68.91929687 150.85199219 68.40109375 151.45398438 67.8671875 152.07421875 C52.66887442 168.45632004 30.88339148 177.44855019 8.78369141 178.359375 C-19.73317466 179.13049188 -42.27959162 172.61567564 -64.14453125 154.05859375 C-73.2246682 145.42371746 -80.02007302 134.88996914 -84.5625 123.25 C-85.01625 122.11304688 -85.47 120.97609375 -85.9375 119.8046875 C-93.59326641 99.664802 -92.88606201 74.1506785 -84.90234375 54.0859375 C-79.48188842 42.61290377 -72.56523841 33.14759694 -63.5625 24.25 C-62.83417969 23.51136719 -62.10585937 22.77273437 -61.35546875 22.01171875 C-44.55155718 5.9560333 -22.60238029 0.16924407 0 0 Z " fill="#FECB24" transform="translate(225.5625,138.75)"/>
<path d="M0 0 C3.47324083 2.73253176 6.02687148 6.05374297 8 10 C8.39201042 14.07690834 8.25344947 16.48296309 6.4375 20.1875 C2.85684439 24.3190257 -0.52748238 26.59632365 -6.0625 27.5 C-10.91457445 26.67411499 -13.82889659 24.07864788 -17.375 20.8125 C-19.69298923 16.80059557 -20.14479307 13.51183153 -19 9 C-14.19616074 1.57588477 -8.96694757 -1.91384105 0 0 Z " fill="#F5BC0F" transform="translate(102,211)"/>
<path d="M0 0 C4.37443057 3.15365925 6.32271263 6.70317736 7.1875 12 C6.36460829 16.83448881 3.76366054 19.73473234 0.5625 23.3125 C-3.69635952 25.71968147 -7.53562573 25.83173086 -12.3125 24.9375 C-15.49279803 23.29206973 -17.52579714 20.97451741 -19.6875 18.125 C-21.15892784 12.97500258 -21.01969826 9.27612529 -18.5625 4.625 C-13.12904784 -1.86495675 -8.04814763 -2.58148132 0 0 Z " fill="#F7BC0D" transform="translate(233.3125,342.0625)"/>
<path d="M0 0 C4.31146239 2.23864393 7.47721821 4.82770703 10 9 C10.9337812 14.49893376 9.48538066 17.90336545 6.41015625 22.33203125 C3.87490255 25.33079394 1.66952353 25.78008132 -2.10546875 26.27734375 C-6.2694373 26.56331144 -9.10659045 26.40329805 -12.4375 23.75 C-16.39450796 19.50345487 -17.48319031 16.998213 -17.31640625 11.02734375 C-16.62899904 6.62284569 -14.06488762 3.88740635 -10.75 1.125 C-7.10234136 -0.36722399 -3.84697272 -0.68021129 0 0 Z " fill="#F7BD10" transform="translate(230,84)"/>
<path d="M0 0 C3.09233097 2.7327576 4.42474492 4.43817532 5.6875 8.375 C5.88404471 13.01017953 5.32283081 16.3796484 2.8125 20.3125 C-0.30292457 23.33629444 -2.32223631 24.66520589 -6.625 24.6875 C-10.85692278 24.58428237 -13.73362157 23.76091895 -17.3125 21.375 C-20.74988949 17.59387156 -20.76827899 14.78537234 -20.59375 9.84765625 C-20.20132487 6.39758536 -19.36544562 4.18069235 -17.3125 1.375 C-11.65049747 -2.57523432 -6.10732891 -2.99604814 0 0 Z " fill="#F8BC0D" transform="translate(326.3125,121.625)"/>
<path d="M0 0 C3.52121839 2.04230667 4.75217677 3.62826516 7 7 C7.6663658 12.00549194 7.80479594 16.51422288 5.375 21 C1.77110133 24.03486204 -1.28673401 25.78584175 -6 26.375 C-11.02819375 25.74647578 -13.97833238 24.12921158 -17.375 20.375 C-19.47914938 16.0048436 -20.1416848 12.75036682 -19 8 C-14.92702644 -0.32543408 -8.72163604 -1.6972502 0 0 Z " fill="#F9BC0C" transform="translate(362,212)"/>
<path d="M0 0 C3.46069403 1.69888616 5.36595034 2.96246419 7.375 6.25 C8.4770359 11.09895797 8.82174639 15.23911489 6.6875 19.8125 C2.36982759 25.40948276 2.36982759 25.40948276 -2 26 C-9.63439982 26.73881289 -9.63439982 26.73881289 -13.375 23.75 C-16.82642273 20.13422381 -17.85223521 18.59585976 -18.3125 13.625 C-17.84650941 8.21950915 -16.39932085 5.2660522 -12.375 1.625 C-8.05890848 -0.45311814 -4.70687191 -0.83359628 0 0 Z " fill="#F9BF10" transform="translate(139,120)"/>
<path d="M0 0 C3.26248332 2.05678296 4.97047009 3.44294709 6.875 6.8125 C7.57857659 11.1604452 7.39719733 14.66863919 5.5625 18.6875 C1.715 23.5325 1.715 23.5325 -2.125 24.8125 C-7.47734642 25.15781267 -10.78031768 25.28824585 -15.125 21.8125 C-18.41259774 18.75973067 -18.84423444 15.37026445 -19.19140625 11.0625 C-19.0915857 7.68034506 -18.02854951 5.56936481 -16.125 2.8125 C-11.26236459 -1.59426334 -6.10835703 -2.32117567 0 0 Z " fill="#F8BB0C" transform="translate(140.125,305.1875)"/>
<path d="M0 0 C3.5857596 2.97105796 4.89907393 6.15405012 5.6875 10.6875 C4.97329457 15.15128393 3.05992384 18.3528956 0.1875 21.8125 C-3.70365115 24.33648993 -8.27939648 24.53992561 -12.8125 23.8125 C-16.87076371 21.70821511 -19.12023374 20.03930203 -20.8125 15.8125 C-21.39810454 11.56116311 -21.27946273 7.88651427 -19.5625 3.9375 C-14.10296651 -2.69193353 -7.68761242 -3.2458808 0 0 Z " fill="#FAB808" transform="translate(326.8125,306.1875)"/>
<path d="M0 0 C0.66 0.99 1.32 1.98 2 3 C1.54625 3.53625 1.0925 4.0725 0.625 4.625 C-1.88242632 8.2897 -2.78883449 12.2609207 -4 16.5 C-5 20 -5 20 -6.0625 22.8125 C-7.12890526 26.43827789 -7.46711461 29.87525668 -7.75390625 33.6328125 C-8 36 -8 36 -8.50927734 37.85009766 C-9.05136389 40.22503005 -9.11326264 42.33102818 -9.09765625 44.765625 C-9.09443359 45.65507812 -9.09121094 46.54453125 -9.08789062 47.4609375 C-9.07532227 48.84152344 -9.07532227 48.84152344 -9.0625 50.25 C-9.05798828 51.18585938 -9.05347656 52.12171875 -9.04882812 53.0859375 C-9.03706918 55.39069041 -9.02063426 57.69531227 -9 60 C-9.33 60 -9.66 60 -10 60 C-14.60108824 42.07801918 -10.71610483 18.71703931 -1.75 2.8125 C-0.88375 1.4203125 -0.88375 1.4203125 0 0 Z " fill="#E1D349" transform="translate(146,183)"/>
<path d="M0 0 C-0.59425781 0.35191406 -1.18851563 0.70382813 -1.80078125 1.06640625 C-3.56868472 2.11944984 -5.33124747 3.1814858 -7.08984375 4.25 C-8.9398202 5.36246906 -10.80578173 6.4490859 -12.69140625 7.5 C-23.11822533 13.57092814 -31.08286908 22.75589601 -37.9140625 32.609375 C-39 34 -39 34 -41 35 C-35.60926632 19.77117735 -20.43420278 8.850718 -7 1 C-5.89785156 0.3503125 -5.89785156 0.3503125 -4.7734375 -0.3125 C-3 -1 -3 -1 0 0 Z " fill="#E7D848" transform="translate(188,148)"/>
<path d="M0 0 C7.56058886 8.60620222 11.34543968 22.32699672 10.890625 33.74609375 C10.66849318 35.84001281 10.34616976 37.92298144 10 40 C9.67 40 9.34 40 9 40 C8.96261719 39.20078125 8.92523438 38.4015625 8.88671875 37.578125 C8.1926562 25.98319777 5.75618342 16.08674371 0.98828125 5.49609375 C0 3 0 3 0 0 Z " fill="#E1B406" transform="translate(307,186)"/>
<path d="M0 0 C-10.0950907 5.56027569 -20.45909567 9.21756581 -32 10 C-32 9.34 -32 8.68 -32 8 C-31.43152344 7.87882812 -30.86304688 7.75765625 -30.27734375 7.6328125 C-21.77548378 5.7876676 -7.97197567 -2.3915927 0 0 Z " fill="#E4B706" transform="translate(274,306)"/>
<path d="M0 0 C0.66 0.33 1.32 0.66 2 1 C1.57589844 1.47308594 1.15179688 1.94617188 0.71484375 2.43359375 C-3.23569733 6.88772028 -6.94842123 11.45063976 -10.51953125 16.21484375 C-12 18 -12 18 -14 19 C-12.62111791 15.02682945 -10.78436958 12.18393796 -8.125 8.9375 C-7.44695312 8.10089844 -6.76890625 7.26429688 -6.0703125 6.40234375 C-4.1359826 4.15779113 -2.12510154 2.06315912 0 0 Z " fill="#EDDE51" transform="translate(161,164)"/>
<path d="M0 0 C0 0.33 0 0.66 0 1 C-1.794375 1.0928125 -1.794375 1.0928125 -3.625 1.1875 C-8.337241 1.81412779 -10.81707381 3.36237007 -14 7 C-15.03345926 9.96622681 -15.60676765 12.88804056 -16 16 C-16.33 16 -16.66 16 -17 16 C-17.44223108 7.30278884 -17.44223108 7.30278884 -14 3 C-9.29782261 -1.11440522 -6.04092707 -1.0258178 0 0 Z " fill="#EFC60E" transform="translate(323,305)"/>
<path d="M0 0 C0.66 0 1.32 0 2 0 C2.1252457 6.51277641 2.1252457 6.51277641 1.50219727 8.93652344 C0.93149725 11.2814707 0.88688242 13.35365769 0.90234375 15.765625 C0.90556641 16.65507812 0.90878906 17.54453125 0.91210938 18.4609375 C0.92467773 19.84152344 0.92467773 19.84152344 0.9375 21.25 C0.94201172 22.18585938 0.94652344 23.12171875 0.95117188 24.0859375 C0.96293082 26.39069041 0.97936574 28.69531227 1 31 C0.67 31 0.34 31 0 31 C-0.75290853 27.64144477 -1.12809129 24.53349006 -1.1328125 21.09375 C-1.13410156 20.18496094 -1.13539063 19.27617187 -1.13671875 18.33984375 C-1.13285156 17.40269531 -1.12898437 16.46554688 -1.125 15.5 C-1.12886719 14.56285156 -1.13273438 13.62570313 -1.13671875 12.66015625 C-1.13542969 11.75136719 -1.13414062 10.84257812 -1.1328125 9.90625 C-1.13168457 9.08447266 -1.13055664 8.26269531 -1.12939453 7.41601562 C-0.99271227 4.86392567 -0.55843431 2.49104957 0 0 Z " fill="#F9EA47" transform="translate(136,212)"/>
<path d="M0 0 C5.61 0 11.22 0 17 0 C17 0.99 17 1.98 17 3 C11.39 2.34 5.78 1.68 0 1 C0 0.67 0 0.34 0 0 Z " fill="#DAB40E" transform="translate(201,314)"/>
<path d="M0 0 C0.66 0.33 1.32 0.66 2 1 C0.87895467 2.31587941 -0.24696965 3.62760353 -1.375 4.9375 C-2.00148438 5.66839844 -2.62796875 6.39929688 -3.2734375 7.15234375 C-5 9 -5 9 -7 10 C-6.67 8.68 -6.34 7.36 -6 6 C-5.34 6 -4.68 6 -4 6 C-4 5.34 -4 4.68 -4 4 C-3.34 4 -2.68 4 -2 4 C-1.34 2.68 -0.68 1.36 0 0 Z " fill="#DEB208" transform="translate(297,283)"/>
<path d="M0 0 C0.99 0.495 0.99 0.495 2 1 C2.6328125 3.50390625 2.6328125 3.50390625 3.125 6.5625 C3.29257813 7.57441406 3.46015625 8.58632813 3.6328125 9.62890625 C3.75398437 10.41136719 3.87515625 11.19382812 4 12 C0.67617413 7.66457495 -0.12018668 5.52858726 0 0 Z " fill="#F1DB36" transform="translate(138,249)"/>
<path d="M0 0 C0 0.66 0 1.32 0 2 C-7.625 4.125 -7.625 4.125 -11 3 C-4.5 0 -4.5 0 0 0 Z " fill="#F5DF3B" transform="translate(202,142)"/>
<path d="M0 0 C0.33 0.66 0.66 1.32 1 2 C0.71125 2.556875 0.4225 3.11375 0.125 3.6875 C-1.35485704 6.72942835 -1.61470012 9.66073437 -2 13 C-2.33 13 -2.66 13 -3 13 C-3.4726477 4.80743982 -3.4726477 4.80743982 -1.5 1.4375 C-0.7575 0.7259375 -0.7575 0.7259375 0 0 Z " fill="#D6BD1E" transform="translate(346,216)"/>
<path d="M0 0 C-1.39253532 3.48133831 -2.63176216 4.47886033 -6 6 C-6.33 6.66 -6.66 7.32 -7 8 C-6.44414399 4.1090079 -4.34122117 0 0 0 Z " fill="#EECB1C" transform="translate(92,212)"/>
<path d="M0 0 C1.32 0 2.64 0 4 0 C3.67 1.65 3.34 3.3 3 5 C2.01 4.67 1.02 4.34 0 4 C0 2.68 0 1.36 0 0 Z " fill="#D8191C" transform="translate(412,288)"/>
</svg>
